<svg xmlns="http://www.w3.org/2000/svg" width="800" height="2400" viewBox="0 0 800 2400">
  <!-- Header -->
  <rect width="800" height="2400" fill="#f8fafc"/>
  <rect width="800" height="64" fill="#1e293b"/>
  <rect x="32" y="20" width="80" height="24" rx="4" fill="#e2e8f0" opacity="0.3"/>
  <rect x="500" y="24" width="50" height="16" rx="2" fill="#94a3b8" opacity="0.4"/>
  <rect x="570" y="24" width="50" height="16" rx="2" fill="#94a3b8" opacity="0.4"/>
  <rect x="640" y="24" width="50" height="16" rx="2" fill="#94a3b8" opacity="0.4"/>
  <rect x="710" y="18" width="60" height="28" rx="6" fill="#6366f1"/>

  <!-- Hero Section -->
  <rect y="64" width="800" height="500" fill="#0f172a"/>
  <rect x="150" y="200" width="500" height="48" rx="4" fill="#e2e8f0" opacity="0.15"/>
  <rect x="200" y="270" width="400" height="24" rx="4" fill="#e2e8f0" opacity="0.08"/>
  <rect x="250" y="310" width="300" height="24" rx="4" fill="#e2e8f0" opacity="0.08"/>
  <rect x="280" y="380" width="120" height="44" rx="8" fill="#6366f1"/>
  <rect x="420" y="380" width="120" height="44" rx="8" fill="transparent" stroke="#475569" stroke-width="2"/>

  <!-- Stats Section -->
  <rect y="564" width="800" height="160" fill="#ffffff"/>
  <rect x="80" y="600" width="120" height="40" rx="4" fill="#e2e8f0" opacity="0.5"/>
  <rect x="80" y="650" width="80" height="16" rx="2" fill="#cbd5e1" opacity="0.4"/>
  <rect x="280" y="600" width="120" height="40" rx="4" fill="#e2e8f0" opacity="0.5"/>
  <rect x="280" y="650" width="80" height="16" rx="2" fill="#cbd5e1" opacity="0.4"/>
  <rect x="480" y="600" width="120" height="40" rx="4" fill="#e2e8f0" opacity="0.5"/>
  <rect x="480" y="650" width="80" height="16" rx="2" fill="#cbd5e1" opacity="0.4"/>
  <rect x="680" y="600" width="80" height="40" rx="4" fill="#e2e8f0" opacity="0.5"/>
  <rect x="680" y="650" width="60" height="16" rx="2" fill="#cbd5e1" opacity="0.4"/>

  <!-- Features Section -->
  <rect y="724" width="800" height="600" fill="#f1f5f9"/>
  <rect x="250" y="770" width="300" height="32" rx="4" fill="#334155" opacity="0.15"/>
  <rect x="280" y="816" width="240" height="16" rx="2" fill="#94a3b8" opacity="0.3"/>

  <rect x="50" y="880" width="220" height="200" rx="12" fill="#ffffff"/>
  <rect x="74" y="910" width="40" height="40" rx="8" fill="#eef2ff"/>
  <rect x="74" y="970" width="140" height="20" rx="2" fill="#334155" opacity="0.15"/>
  <rect x="74" y="1000" width="172" height="12" rx="2" fill="#94a3b8" opacity="0.2"/>
  <rect x="74" y="1020" width="150" height="12" rx="2" fill="#94a3b8" opacity="0.2"/>

  <rect x="290" y="880" width="220" height="200" rx="12" fill="#ffffff"/>
  <rect x="314" y="910" width="40" height="40" rx="8" fill="#eef2ff"/>
  <rect x="314" y="970" width="140" height="20" rx="2" fill="#334155" opacity="0.15"/>
  <rect x="314" y="1000" width="172" height="12" rx="2" fill="#94a3b8" opacity="0.2"/>
  <rect x="314" y="1020" width="150" height="12" rx="2" fill="#94a3b8" opacity="0.2"/>

  <rect x="530" y="880" width="220" height="200" rx="12" fill="#ffffff"/>
  <rect x="554" y="910" width="40" height="40" rx="8" fill="#eef2ff"/>
  <rect x="554" y="970" width="140" height="20" rx="2" fill="#334155" opacity="0.15"/>
  <rect x="554" y="1000" width="172" height="12" rx="2" fill="#94a3b8" opacity="0.2"/>
  <rect x="554" y="1020" width="150" height="12" rx="2" fill="#94a3b8" opacity="0.2"/>

  <!-- About Section -->
  <rect y="1324" width="800" height="450" fill="#ffffff"/>
  <rect x="60" y="1400" width="320" height="280" rx="12" fill="#e2e8f0" opacity="0.5"/>
  <rect x="440" y="1420" width="200" height="28" rx="4" fill="#334155" opacity="0.12"/>
  <rect x="440" y="1470" width="300" height="14" rx="2" fill="#94a3b8" opacity="0.25"/>
  <rect x="440" y="1496" width="280" height="14" rx="2" fill="#94a3b8" opacity="0.25"/>
  <rect x="440" y="1522" width="260" height="14" rx="2" fill="#94a3b8" opacity="0.25"/>
  <rect x="440" y="1580" width="120" height="40" rx="8" fill="#6366f1"/>

  <!-- Testimonials -->
  <rect y="1774" width="800" height="350" fill="#f1f5f9"/>
  <rect x="250" y="1810" width="300" height="28" rx="4" fill="#334155" opacity="0.12"/>
  <rect x="60" y="1880" width="320" height="180" rx="12" fill="#ffffff"/>
  <circle cx="100" cy="1920" r="20" fill="#e2e8f0"/>
  <rect x="130" y="1910" width="100" height="14" rx="2" fill="#334155" opacity="0.12"/>
  <rect x="130" y="1932" width="60" height="10" rx="2" fill="#94a3b8" opacity="0.2"/>
  <rect x="84" y="1960" width="272" height="10" rx="2" fill="#94a3b8" opacity="0.2"/>
  <rect x="84" y="1980" width="240" height="10" rx="2" fill="#94a3b8" opacity="0.2"/>
  <rect x="84" y="2000" width="200" height="10" rx="2" fill="#94a3b8" opacity="0.2"/>

  <rect x="420" y="1880" width="320" height="180" rx="12" fill="#ffffff"/>
  <circle cx="460" cy="1920" r="20" fill="#e2e8f0"/>
  <rect x="490" y="1910" width="100" height="14" rx="2" fill="#334155" opacity="0.12"/>
  <rect x="490" y="1932" width="60" height="10" rx="2" fill="#94a3b8" opacity="0.2"/>
  <rect x="444" y="1960" width="272" height="10" rx="2" fill="#94a3b8" opacity="0.2"/>
  <rect x="444" y="1980" width="240" height="10" rx="2" fill="#94a3b8" opacity="0.2"/>
  <rect x="444" y="2000" width="200" height="10" rx="2" fill="#94a3b8" opacity="0.2"/>

  <!-- Footer -->
  <rect y="2200" width="800" height="200" fill="#0f172a"/>
  <rect x="60" y="2240" width="80" height="20" rx="4" fill="#e2e8f0" opacity="0.15"/>
  <rect x="60" y="2272" width="160" height="10" rx="2" fill="#94a3b8" opacity="0.1"/>
  <rect x="350" y="2240" width="60" height="12" rx="2" fill="#94a3b8" opacity="0.15"/>
  <rect x="350" y="2264" width="80" height="10" rx="2" fill="#94a3b8" opacity="0.08"/>
  <rect x="350" y="2282" width="70" height="10" rx="2" fill="#94a3b8" opacity="0.08"/>
  <rect x="500" y="2240" width="60" height="12" rx="2" fill="#94a3b8" opacity="0.15"/>
  <rect x="500" y="2264" width="80" height="10" rx="2" fill="#94a3b8" opacity="0.08"/>
  <rect x="500" y="2282" width="70" height="10" rx="2" fill="#94a3b8" opacity="0.08"/>
  <rect x="650" y="2240" width="60" height="12" rx="2" fill="#94a3b8" opacity="0.15"/>
  <rect x="650" y="2264" width="80" height="10" rx="2" fill="#94a3b8" opacity="0.08"/>
</svg>
