<svg xmlns="http://www.w3.org/2000/svg" width="800" height="2400" viewBox="0 0 800 2400">
  <!-- Startup Landing - Blue/Indigo theme -->
  <rect width="800" height="2400" fill="#ffffff"/>

  <!-- Header -->
  <rect width="800" height="64" fill="#ffffff"/>
  <rect x="32" y="18" width="90" height="28" rx="6" fill="#4f46e5" opacity="0.15"/>
  <rect x="32" y="24" width="24" height="16" rx="3" fill="#4f46e5"/>
  <rect x="400" y="24" width="50" height="14" rx="2" fill="#64748b" opacity="0.3"/>
  <rect x="470" y="24" width="50" height="14" rx="2" fill="#64748b" opacity="0.3"/>
  <rect x="540" y="24" width="50" height="14" rx="2" fill="#64748b" opacity="0.3"/>
  <rect x="620" y="18" width="70" height="28" rx="6" fill="transparent" stroke="#4f46e5" stroke-width="1.5"/>
  <rect x="700" y="18" width="70" height="28" rx="6" fill="#4f46e5"/>

  <!-- Hero -->
  <rect y="64" width="800" height="520" fill="url(#hero-grad)"/>
  <defs>
    <linearGradient id="hero-grad" x1="0" y1="0" x2="1" y2="1">
      <stop offset="0%" stop-color="#eef2ff"/>
      <stop offset="100%" stop-color="#e0e7ff"/>
    </linearGradient>
  </defs>
  <rect x="60" y="120" width="100" height="28" rx="14" fill="#4f46e5" opacity="0.1"/>
  <rect x="70" y="126" width="80" height="16" rx="2" fill="#4f46e5" opacity="0.3"/>
  <rect x="60" y="180" width="380" height="44" rx="4" fill="#1e1b4b" opacity="0.12"/>
  <rect x="60" y="240" width="420" height="44" rx="4" fill="#1e1b4b" opacity="0.08"/>
  <rect x="60" y="310" width="320" height="16" rx="2" fill="#64748b" opacity="0.2"/>
  <rect x="60" y="338" width="280" height="16" rx="2" fill="#64748b" opacity="0.15"/>
  <rect x="60" y="400" width="150" height="48" rx="10" fill="#4f46e5"/>
  <rect x="230" y="400" width="150" height="48" rx="10" fill="transparent" stroke="#4f46e5" stroke-width="2"/>
  <!-- Hero image placeholder -->
  <rect x="500" y="140" width="260" height="360" rx="16" fill="#ffffff" opacity="0.8"/>
  <rect x="520" y="160" width="220" height="140" rx="8" fill="#e0e7ff"/>
  <rect x="520" y="320" width="220" height="60" rx="8" fill="#eef2ff"/>
  <rect x="520" y="400" width="100" height="30" rx="6" fill="#4f46e5" opacity="0.2"/>

  <!-- Logo bar -->
  <rect y="584" width="800" height="100" fill="#ffffff"/>
  <rect x="200" y="594" width="400" height="14" rx="2" fill="#94a3b8" opacity="0.12"/>
  <rect x="80" y="630" width="80" height="30" rx="4" fill="#e2e8f0" opacity="0.5"/>
  <rect x="200" y="630" width="80" height="30" rx="4" fill="#e2e8f0" opacity="0.5"/>
  <rect x="320" y="630" width="80" height="30" rx="4" fill="#e2e8f0" opacity="0.5"/>
  <rect x="440" y="630" width="80" height="30" rx="4" fill="#e2e8f0" opacity="0.5"/>
  <rect x="560" y="630" width="80" height="30" rx="4" fill="#e2e8f0" opacity="0.5"/>

  <!-- Features -->
  <rect y="684" width="800" height="560" fill="#f8fafc"/>
  <rect x="250" y="730" width="300" height="32" rx="4" fill="#1e1b4b" opacity="0.1"/>
  <rect x="220" y="776" width="360" height="16" rx="2" fill="#94a3b8" opacity="0.2"/>

  <rect x="50" y="840" width="220" height="220" rx="16" fill="#ffffff"/>
  <rect x="74" y="870" width="48" height="48" rx="12" fill="#eef2ff"/>
  <rect x="74" y="934" width="130" height="18" rx="2" fill="#1e1b4b" opacity="0.1"/>
  <rect x="74" y="964" width="172" height="10" rx="2" fill="#94a3b8" opacity="0.15"/>
  <rect x="74" y="982" width="150" height="10" rx="2" fill="#94a3b8" opacity="0.15"/>
  <rect x="74" y="1000" width="130" height="10" rx="2" fill="#94a3b8" opacity="0.15"/>

  <rect x="290" y="840" width="220" height="220" rx="16" fill="#ffffff"/>
  <rect x="314" y="870" width="48" height="48" rx="12" fill="#eef2ff"/>
  <rect x="314" y="934" width="130" height="18" rx="2" fill="#1e1b4b" opacity="0.1"/>
  <rect x="314" y="964" width="172" height="10" rx="2" fill="#94a3b8" opacity="0.15"/>
  <rect x="314" y="982" width="150" height="10" rx="2" fill="#94a3b8" opacity="0.15"/>
  <rect x="314" y="1000" width="130" height="10" rx="2" fill="#94a3b8" opacity="0.15"/>

  <rect x="530" y="840" width="220" height="220" rx="16" fill="#ffffff"/>
  <rect x="554" y="870" width="48" height="48" rx="12" fill="#eef2ff"/>
  <rect x="554" y="934" width="130" height="18" rx="2" fill="#1e1b4b" opacity="0.1"/>
  <rect x="554" y="964" width="172" height="10" rx="2" fill="#94a3b8" opacity="0.15"/>
  <rect x="554" y="982" width="150" height="10" rx="2" fill="#94a3b8" opacity="0.15"/>
  <rect x="554" y="1000" width="130" height="10" rx="2" fill="#94a3b8" opacity="0.15"/>

  <!-- Pricing -->
  <rect y="1244" width="800" height="520" fill="#ffffff"/>
  <rect x="270" y="1290" width="260" height="32" rx="4" fill="#1e1b4b" opacity="0.1"/>
  <rect x="250" y="1336" width="300" height="14" rx="2" fill="#94a3b8" opacity="0.15"/>

  <rect x="60" y="1390" width="210" height="320" rx="16" fill="#f8fafc" stroke="#e2e8f0" stroke-width="1"/>
  <rect x="90" y="1420" width="80" height="18" rx="2" fill="#64748b" opacity="0.15"/>
  <rect x="90" y="1456" width="60" height="32" rx="2" fill="#1e1b4b" opacity="0.1"/>
  <rect x="90" y="1510" width="150" height="8" rx="2" fill="#94a3b8" opacity="0.12"/>
  <rect x="90" y="1530" width="150" height="8" rx="2" fill="#94a3b8" opacity="0.12"/>
  <rect x="90" y="1550" width="150" height="8" rx="2" fill="#94a3b8" opacity="0.12"/>
  <rect x="90" y="1630" width="150" height="40" rx="8" fill="transparent" stroke="#4f46e5" stroke-width="1.5"/>

  <rect x="295" y="1390" width="210" height="320" rx="16" fill="#4f46e5"/>
  <rect x="325" y="1420" width="80" height="18" rx="2" fill="#ffffff" opacity="0.3"/>
  <rect x="325" y="1456" width="60" height="32" rx="2" fill="#ffffff" opacity="0.25"/>
  <rect x="325" y="1510" width="150" height="8" rx="2" fill="#ffffff" opacity="0.15"/>
  <rect x="325" y="1530" width="150" height="8" rx="2" fill="#ffffff" opacity="0.15"/>
  <rect x="325" y="1550" width="150" height="8" rx="2" fill="#ffffff" opacity="0.15"/>
  <rect x="325" y="1570" width="150" height="8" rx="2" fill="#ffffff" opacity="0.15"/>
  <rect x="325" y="1630" width="150" height="40" rx="8" fill="#ffffff"/>

  <rect x="530" y="1390" width="210" height="320" rx="16" fill="#f8fafc" stroke="#e2e8f0" stroke-width="1"/>
  <rect x="560" y="1420" width="80" height="18" rx="2" fill="#64748b" opacity="0.15"/>
  <rect x="560" y="1456" width="60" height="32" rx="2" fill="#1e1b4b" opacity="0.1"/>
  <rect x="560" y="1510" width="150" height="8" rx="2" fill="#94a3b8" opacity="0.12"/>
  <rect x="560" y="1530" width="150" height="8" rx="2" fill="#94a3b8" opacity="0.12"/>
  <rect x="560" y="1550" width="150" height="8" rx="2" fill="#94a3b8" opacity="0.12"/>
  <rect x="560" y="1630" width="150" height="40" rx="8" fill="transparent" stroke="#4f46e5" stroke-width="1.5"/>

  <!-- CTA -->
  <rect y="1764" width="800" height="280" fill="#f8fafc"/>
  <rect x="100" y="1800" width="600" height="200" rx="24" fill="#4f46e5"/>
  <rect x="250" y="1850" width="300" height="28" rx="4" fill="#ffffff" opacity="0.2"/>
  <rect x="280" y="1895" width="240" height="14" rx="2" fill="#ffffff" opacity="0.12"/>
  <rect x="310" y="1940" width="180" height="40" rx="8" fill="#ffffff"/>

  <!-- FAQ -->
  <rect y="2044" width="800" height="220" fill="#ffffff"/>
  <rect x="300" y="2070" width="200" height="24" rx="4" fill="#1e1b4b" opacity="0.08"/>
  <rect x="160" y="2110" width="480" height="36" rx="8" fill="#f8fafc" stroke="#e2e8f0" stroke-width="1"/>
  <rect x="160" y="2156" width="480" height="36" rx="8" fill="#f8fafc" stroke="#e2e8f0" stroke-width="1"/>
  <rect x="160" y="2202" width="480" height="36" rx="8" fill="#f8fafc" stroke="#e2e8f0" stroke-width="1"/>

  <!-- Footer -->
  <rect y="2300" width="800" height="100" fill="#1e1b4b"/>
  <rect x="60" y="2330" width="70" height="16" rx="4" fill="#a5b4fc" opacity="0.3"/>
  <rect x="300" y="2334" width="40" height="10" rx="2" fill="#a5b4fc" opacity="0.12"/>
  <rect x="360" y="2334" width="40" height="10" rx="2" fill="#a5b4fc" opacity="0.12"/>
  <rect x="420" y="2334" width="40" height="10" rx="2" fill="#a5b4fc" opacity="0.12"/>
  <rect x="640" y="2330" width="20" height="16" rx="10" fill="#a5b4fc" opacity="0.12"/>
  <rect x="670" y="2330" width="20" height="16" rx="10" fill="#a5b4fc" opacity="0.12"/>
  <rect x="700" y="2330" width="20" height="16" rx="10" fill="#a5b4fc" opacity="0.12"/>
  <rect x="300" y="2370" width="200" height="8" rx="2" fill="#a5b4fc" opacity="0.06"/>
</svg>
